<svg xmlns="http://www.w3.org/2000/svg" xmlns:xlink="http://www.w3.org/1999/xlink" width="500" zoomAndPan="magnify" viewBox="0 0 375 374.999991" height="500" preserveAspectRatio="xMidYMid meet" version="1.0"><defs><g/><clipPath id="7c76ef973e"><path d="M 267 165 L 289 165 L 289 187 L 267 187 Z M 267 165 " clip-rule="nonzero"/></clipPath><clipPath id="a0c3d4cfba"><path d="M 263.527344 168.453125 L 278.398438 154.707031 L 298.761719 176.738281 L 283.890625 190.484375 Z M 263.527344 168.453125 " clip-rule="nonzero"/></clipPath><clipPath id="ebddf1b1f1"><path d="M 263.527344 168.453125 L 278.398438 154.707031 L 298.761719 176.738281 L 283.890625 190.484375 Z M 263.527344 168.453125 " clip-rule="nonzero"/></clipPath><clipPath id="d8dc4dc4d5"><path d="M 278 155 L 300 155 L 300 177 L 278 177 Z M 278 155 " clip-rule="nonzero"/></clipPath><clipPath id="0393edc2f0"><path d="M 274.199219 158.589844 L 289.070312 144.84375 L 309.429688 166.875 L 294.558594 180.621094 Z M 274.199219 158.589844 " clip-rule="nonzero"/></clipPath><clipPath id="eaa0c73425"><path d="M 274.199219 158.589844 L 289.070312 144.84375 L 309.429688 166.875 L 294.558594 180.621094 Z M 274.199219 158.589844 " clip-rule="nonzero"/></clipPath><clipPath id="712d2be896"><path d="M 131.25 131.25 L 243.75 131.25 L 243.75 243.75 L 131.25 243.75 Z M 131.25 131.25 " clip-rule="nonzero"/></clipPath><clipPath id="8663b26354"><path d="M 187.5 131.25 C 156.433594 131.25 131.25 156.433594 131.25 187.5 C 131.25 218.566406 156.433594 243.75 187.5 243.75 C 218.566406 243.75 243.75 218.566406 243.75 187.5 C 243.75 156.433594 218.566406 131.25 187.5 131.25 Z M 187.5 131.25 " clip-rule="nonzero"/></clipPath></defs><g clip-path="url(#7c76ef973e)"><g clip-path="url(#a0c3d4cfba)"><g clip-path="url(#ebddf1b1f1)"><path fill="#18cb96" d="M 288.734375 165.996094 L 270.710938 165.191406 C 267.226562 165.039062 266.640625 171.820312 270.765625 171.933594 L 281.980469 172.234375 L 281.125 183.519531 C 280.863281 186.957031 287.566406 187.320312 287.757812 183.828125 Z M 288.734375 165.996094 " fill-opacity="1" fill-rule="nonzero"/></g></g></g><g clip-path="url(#d8dc4dc4d5)"><g clip-path="url(#0393edc2f0)"><g clip-path="url(#eaa0c73425)"><path fill="#18cb96" d="M 299.40625 156.132812 L 281.378906 155.332031 C 277.898438 155.175781 277.3125 161.957031 281.4375 162.070312 L 292.652344 162.375 L 291.792969 173.660156 C 291.535156 177.09375 298.234375 177.457031 298.425781 173.964844 Z M 299.40625 156.132812 " fill-opacity="1" fill-rule="nonzero"/></g></g></g><g clip-path="url(#712d2be896)"><g clip-path="url(#8663b26354)"><path fill="#18cb96" d="M 131.25 131.25 L 243.75 131.25 L 243.75 243.75 L 131.25 243.75 Z M 131.25 131.25 " fill-opacity="1" fill-rule="nonzero"/></g></g><g fill="#373643" fill-opacity="1"><g transform="translate(85.978547, 204.845628)"><g><path d="M 21.1875 -19.953125 C 20.363281 -20.921875 19.398438 -21.601562 18.296875 -22 C 17.191406 -22.394531 16.101562 -22.59375 15.03125 -22.59375 C 12.664062 -22.59375 10.765625 -21.773438 9.328125 -20.140625 C 7.898438 -18.515625 7.1875 -16.328125 7.1875 -13.578125 C 7.1875 -10.929688 7.925781 -8.800781 9.40625 -7.1875 C 10.894531 -5.582031 12.835938 -4.78125 15.234375 -4.78125 C 16.304688 -4.78125 17.394531 -4.96875 18.5 -5.34375 C 19.613281 -5.71875 20.601562 -6.332031 21.46875 -7.1875 C 22.25 -7.976562 23.023438 -8.390625 23.796875 -8.421875 C 24.566406 -8.460938 25.203125 -8.25 25.703125 -7.78125 C 26.203125 -7.3125 26.476562 -6.707031 26.53125 -5.96875 C 26.582031 -5.238281 26.269531 -4.5 25.59375 -3.75 C 24.195312 -2.21875 22.59375 -1.117188 20.78125 -0.453125 C 18.976562 0.203125 17.113281 0.53125 15.1875 0.53125 C 12.363281 0.53125 9.882812 -0.0546875 7.75 -1.234375 C 5.625 -2.410156 3.96875 -4.054688 2.78125 -6.171875 C 1.601562 -8.285156 1.015625 -10.734375 1.015625 -13.515625 C 1.015625 -16.421875 1.59375 -18.945312 2.75 -21.09375 C 3.914062 -23.238281 5.554688 -24.898438 7.671875 -26.078125 C 9.785156 -27.253906 12.238281 -27.84375 15.03125 -27.84375 C 16.988281 -27.84375 18.816406 -27.535156 20.515625 -26.921875 C 22.222656 -26.316406 23.789062 -25.175781 25.21875 -23.5 C 25.863281 -22.75 26.140625 -22.015625 26.046875 -21.296875 C 25.960938 -20.585938 25.648438 -20 25.109375 -19.53125 C 24.578125 -19.0625 23.941406 -18.835938 23.203125 -18.859375 C 22.472656 -18.878906 21.800781 -19.242188 21.1875 -19.953125 Z M 21.1875 -19.953125 "/></g></g></g><g fill="#373643" fill-opacity="1"><g transform="translate(112.803479, 204.845628)"><g><path d="M 15.34375 -27.84375 C 18.207031 -27.84375 20.710938 -27.242188 22.859375 -26.046875 C 25.003906 -24.847656 26.664062 -23.175781 27.84375 -21.03125 C 29.03125 -18.882812 29.625 -16.378906 29.625 -13.515625 C 29.582031 -10.734375 28.960938 -8.285156 27.765625 -6.171875 C 26.566406 -4.054688 24.898438 -2.410156 22.765625 -1.234375 C 20.640625 -0.0546875 18.164062 0.53125 15.34375 0.53125 C 12.550781 0.53125 10.082031 -0.0546875 7.9375 -1.234375 C 5.789062 -2.410156 4.117188 -4.054688 2.921875 -6.171875 C 1.722656 -8.285156 1.109375 -10.734375 1.078125 -13.515625 C 1.078125 -16.378906 1.675781 -18.882812 2.875 -21.03125 C 4.070312 -23.175781 5.742188 -24.847656 7.890625 -26.046875 C 10.035156 -27.242188 12.519531 -27.84375 15.34375 -27.84375 Z M 15.34375 -4.828125 C 17.78125 -4.828125 19.722656 -5.628906 21.171875 -7.234375 C 22.617188 -8.847656 23.34375 -10.941406 23.34375 -13.515625 C 23.34375 -16.160156 22.617188 -18.316406 21.171875 -19.984375 C 19.722656 -21.648438 17.78125 -22.484375 15.34375 -22.484375 C 12.945312 -22.484375 11.015625 -21.648438 9.546875 -19.984375 C 8.078125 -18.316406 7.34375 -16.160156 7.34375 -13.515625 C 7.34375 -10.941406 8.078125 -8.847656 9.546875 -7.234375 C 11.015625 -5.628906 12.945312 -4.828125 15.34375 -4.828125 Z M 15.34375 -4.828125 "/></g></g></g><g fill="#373643" fill-opacity="1"><g transform="translate(142.57921, 204.845628)"><g><path d="M 8 -2.6875 C 8 -1.96875 7.703125 -1.335938 7.109375 -0.796875 C 6.515625 -0.265625 5.789062 0 4.9375 0 C 4.039062 0 3.304688 -0.265625 2.734375 -0.796875 C 2.160156 -1.335938 1.875 -1.96875 1.875 -2.6875 L 1.875 -32.03125 C 1.875 -32.75 2.160156 -33.375 2.734375 -33.90625 C 3.304688 -34.445312 4.039062 -34.71875 4.9375 -34.71875 C 5.789062 -34.71875 6.515625 -34.445312 7.109375 -33.90625 C 7.703125 -33.375 8 -32.75 8 -32.03125 Z M 8 -2.6875 "/></g></g></g><g fill="#373643" fill-opacity="1"><g transform="translate(151.377468, 204.845628)"><g><path d="M 8 -2.6875 C 8 -1.96875 7.703125 -1.335938 7.109375 -0.796875 C 6.515625 -0.265625 5.789062 0 4.9375 0 C 4.039062 0 3.304688 -0.265625 2.734375 -0.796875 C 2.160156 -1.335938 1.875 -1.96875 1.875 -2.6875 L 1.875 -32.03125 C 1.875 -32.75 2.160156 -33.375 2.734375 -33.90625 C 3.304688 -34.445312 4.039062 -34.71875 4.9375 -34.71875 C 5.789062 -34.71875 6.515625 -34.445312 7.109375 -33.90625 C 7.703125 -33.375 8 -32.75 8 -32.03125 Z M 8 -2.6875 "/></g></g></g><g fill="#373643" fill-opacity="1"><g transform="translate(160.175726, 204.845628)"><g><path d="M 24.953125 -27.3125 C 25.878906 -27.3125 26.617188 -27.050781 27.171875 -26.53125 C 27.734375 -26.007812 28.015625 -25.335938 28.015625 -24.515625 L 28.015625 -2.796875 C 28.015625 -1.972656 27.734375 -1.300781 27.171875 -0.78125 C 26.617188 -0.257812 25.878906 0 24.953125 0 C 24.054688 0 23.359375 -0.203125 22.859375 -0.609375 C 22.359375 -1.023438 22.054688 -1.570312 21.953125 -2.25 C 20.734375 -1.289062 19.367188 -0.585938 17.859375 -0.140625 C 16.359375 0.304688 14.929688 0.53125 13.578125 0.53125 C 11.003906 0.53125 8.773438 -0.0546875 6.890625 -1.234375 C 5.015625 -2.410156 3.578125 -4.070312 2.578125 -6.21875 C 1.578125 -8.363281 1.078125 -10.867188 1.078125 -13.734375 C 1.078125 -16.523438 1.628906 -18.972656 2.734375 -21.078125 C 3.847656 -23.191406 5.394531 -24.847656 7.375 -26.046875 C 9.363281 -27.242188 11.660156 -27.84375 14.265625 -27.84375 C 15.410156 -27.84375 16.679688 -27.628906 18.078125 -27.203125 C 19.472656 -26.773438 20.765625 -26.097656 21.953125 -25.171875 C 22.085938 -25.804688 22.40625 -26.320312 22.90625 -26.71875 C 23.40625 -27.113281 24.085938 -27.3125 24.953125 -27.3125 Z M 14.21875 -4.875 C 15.789062 -4.875 17.3125 -5.222656 18.78125 -5.921875 C 20.25 -6.617188 21.285156 -7.648438 21.890625 -9.015625 L 21.890625 -18.296875 C 21.210938 -19.617188 20.191406 -20.632812 18.828125 -21.34375 C 17.472656 -22.0625 16.097656 -22.421875 14.703125 -22.421875 C 12.453125 -22.421875 10.632812 -21.597656 9.25 -19.953125 C 7.875 -18.304688 7.1875 -16.21875 7.1875 -13.6875 C 7.1875 -11.039062 7.828125 -8.910156 9.109375 -7.296875 C 10.398438 -5.679688 12.101562 -4.875 14.21875 -4.875 Z M 14.21875 -4.875 "/></g></g></g><g fill="#373643" fill-opacity="1"><g transform="translate(191.18543, 204.845628)"><g><path d="M 16.53125 -27.84375 C 19.28125 -27.84375 21.613281 -27.257812 23.53125 -26.09375 C 25.445312 -24.9375 26.910156 -23.3125 27.921875 -21.21875 C 28.941406 -19.125 29.453125 -16.703125 29.453125 -13.953125 C 29.453125 -11.234375 28.976562 -8.769531 28.03125 -6.5625 C 27.082031 -4.363281 25.722656 -2.628906 23.953125 -1.359375 C 22.179688 -0.0976562 20.0625 0.53125 17.59375 0.53125 C 15.945312 0.53125 14.363281 0.253906 12.84375 -0.296875 C 11.320312 -0.847656 9.9375 -1.679688 8.6875 -2.796875 C 8.6875 -0.929688 7.722656 0 5.796875 0 C 4.828125 0 4.066406 -0.238281 3.515625 -0.71875 C 2.960938 -1.207031 2.6875 -1.878906 2.6875 -2.734375 L 2.6875 -32.03125 C 2.6875 -32.957031 3 -33.632812 3.625 -34.0625 C 4.25 -34.5 4.953125 -34.71875 5.734375 -34.71875 C 6.492188 -34.71875 7.191406 -34.5 7.828125 -34.0625 C 8.472656 -33.632812 8.796875 -32.957031 8.796875 -32.03125 L 8.75 -24.578125 C 9.925781 -25.679688 11.191406 -26.5 12.546875 -27.03125 C 13.910156 -27.570312 15.238281 -27.84375 16.53125 -27.84375 Z M 16.3125 -4.9375 C 18.425781 -4.9375 20.125 -5.757812 21.40625 -7.40625 C 22.695312 -9.050781 23.34375 -11.210938 23.34375 -13.890625 C 23.34375 -16.429688 22.648438 -18.476562 21.265625 -20.03125 C 19.890625 -21.59375 18.078125 -22.375 15.828125 -22.375 C 14.398438 -22.375 13.015625 -21.976562 11.671875 -21.1875 C 10.328125 -20.40625 9.351562 -19.28125 8.75 -17.8125 L 8.6875 -9.765625 C 9.1875 -8.148438 10.148438 -6.941406 11.578125 -6.140625 C 13.015625 -5.335938 14.59375 -4.9375 16.3125 -4.9375 Z M 16.3125 -4.9375 "/></g></g></g><g fill="#373643" fill-opacity="1"><g transform="translate(222.302433, 204.845628)"><g><path d="M 8.046875 -31.328125 C 8.046875 -30.441406 7.710938 -29.773438 7.046875 -29.328125 C 6.390625 -28.878906 5.6875 -28.65625 4.9375 -28.65625 C 4.144531 -28.65625 3.425781 -28.878906 2.78125 -29.328125 C 2.144531 -29.773438 1.828125 -30.441406 1.828125 -31.328125 L 1.828125 -32.03125 C 1.828125 -32.957031 2.144531 -33.632812 2.78125 -34.0625 C 3.425781 -34.5 4.144531 -34.71875 4.9375 -34.71875 C 5.6875 -34.71875 6.390625 -34.5 7.046875 -34.0625 C 7.710938 -33.632812 8.046875 -32.957031 8.046875 -32.03125 Z M 1.875 -24.6875 C 1.875 -25.539062 2.203125 -26.191406 2.859375 -26.640625 C 3.523438 -27.085938 4.21875 -27.3125 4.9375 -27.3125 C 5.6875 -27.3125 6.382812 -27.085938 7.03125 -26.640625 C 7.675781 -26.191406 8 -25.554688 8 -24.734375 L 8 -2.625 C 8 -1.726562 7.675781 -1.066406 7.03125 -0.640625 C 6.382812 -0.210938 5.6875 0 4.9375 0 C 4.21875 0 3.523438 -0.210938 2.859375 -0.640625 C 2.203125 -1.066406 1.875 -1.726562 1.875 -2.625 Z M 1.875 -24.6875 "/></g></g></g><g fill="#373643" fill-opacity="1"><g transform="translate(231.100691, 204.845628)"><g><path d="M 12.34375 -30.265625 C 11.695312 -30.265625 11.101562 -30.046875 10.5625 -29.609375 C 10.03125 -29.179688 9.765625 -28.523438 9.765625 -27.640625 L 9.765625 -26.71875 L 13.3125 -26.71875 C 14.195312 -26.71875 14.84375 -26.445312 15.25 -25.90625 C 15.664062 -25.375 15.875 -24.804688 15.875 -24.203125 C 15.875 -23.554688 15.664062 -22.972656 15.25 -22.453125 C 14.84375 -21.929688 14.195312 -21.671875 13.3125 -21.671875 L 9.765625 -21.671875 L 9.765625 -2.6875 C 9.765625 -1.789062 9.441406 -1.117188 8.796875 -0.671875 C 8.148438 -0.222656 7.453125 0 6.703125 0 C 5.921875 0 5.21875 -0.222656 4.59375 -0.671875 C 3.96875 -1.117188 3.65625 -1.789062 3.65625 -2.6875 L 3.65625 -21.671875 L 2.25 -21.671875 C 1.351562 -21.671875 0.671875 -21.929688 0.203125 -22.453125 C -0.253906 -22.972656 -0.484375 -23.554688 -0.484375 -24.203125 C -0.484375 -24.804688 -0.253906 -25.375 0.203125 -25.90625 C 0.671875 -26.445312 1.351562 -26.71875 2.25 -26.71875 L 3.65625 -26.71875 L 3.65625 -27.640625 C 3.65625 -29.316406 4.054688 -30.734375 4.859375 -31.890625 C 5.660156 -33.054688 6.710938 -33.941406 8.015625 -34.546875 C 9.328125 -35.160156 10.695312 -35.46875 12.125 -35.46875 C 13.164062 -35.46875 14.1875 -35.320312 15.1875 -35.03125 C 16.1875 -34.75 17.097656 -34.25 17.921875 -33.53125 C 18.597656 -32.925781 18.925781 -32.265625 18.90625 -31.546875 C 18.894531 -30.835938 18.644531 -30.210938 18.15625 -29.671875 C 17.675781 -29.128906 17.078125 -28.804688 16.359375 -28.703125 C 15.648438 -28.597656 14.9375 -28.867188 14.21875 -29.515625 C 13.71875 -30.015625 13.09375 -30.265625 12.34375 -30.265625 Z M 12.34375 -30.265625 "/></g></g></g><g fill="#373643" fill-opacity="1"><g transform="translate(247.839273, 204.845628)"><g><path d="M 25 -27.3125 C 25.9375 -27.3125 26.734375 -26.90625 27.390625 -26.09375 C 28.054688 -25.289062 28.191406 -24.351562 27.796875 -23.28125 L 12.125 7.453125 C 11.769531 8.140625 11.3125 8.675781 10.75 9.0625 C 10.195312 9.457031 9.617188 9.65625 9.015625 9.65625 C 8.410156 9.65625 7.847656 9.445312 7.328125 9.03125 C 6.804688 8.625 6.445312 8.097656 6.25 7.453125 C 6.050781 6.816406 6.132812 6.140625 6.5 5.421875 L 10.5625 -2.625 L 0 -23.078125 C -0.320312 -23.785156 -0.363281 -24.460938 -0.125 -25.109375 C 0.101562 -25.753906 0.484375 -26.28125 1.015625 -26.6875 C 1.554688 -27.101562 2.148438 -27.3125 2.796875 -27.3125 C 3.367188 -27.3125 3.921875 -27.128906 4.453125 -26.765625 C 4.992188 -26.410156 5.390625 -25.945312 5.640625 -25.375 L 13.890625 -9.234375 L 22.15625 -25.4375 C 22.40625 -26.007812 22.78125 -26.460938 23.28125 -26.796875 C 23.78125 -27.140625 24.351562 -27.3125 25 -27.3125 Z M 25 -27.3125 "/></g></g></g><g fill="#373643" fill-opacity="1"><g transform="translate(103.086548, 225.769265)"><g><path d="M 2.140625 -6.75 C 2.398438 -7.488281 2.867188 -8.09375 3.546875 -8.5625 C 4.234375 -9.039062 5.0625 -9.28125 6.03125 -9.28125 C 6.882812 -9.28125 7.644531 -9.085938 8.3125 -8.703125 C 8.976562 -8.328125 9.5 -7.78125 9.875 -7.0625 C 10.257812 -6.351562 10.453125 -5.53125 10.453125 -4.59375 C 10.453125 -3.644531 10.257812 -2.8125 9.875 -2.09375 C 9.5 -1.382812 8.976562 -0.832031 8.3125 -0.4375 C 7.644531 -0.0507812 6.882812 0.140625 6.03125 0.140625 C 5.070312 0.140625 4.25 -0.0976562 3.5625 -0.578125 C 2.882812 -1.054688 2.410156 -1.660156 2.140625 -2.390625 L 2.140625 4.3125 L 1.390625 4.3125 L 1.390625 -9.15625 L 2.140625 -9.15625 Z M 9.671875 -4.59375 C 9.671875 -5.425781 9.507812 -6.144531 9.1875 -6.75 C 8.875 -7.351562 8.429688 -7.816406 7.859375 -8.140625 C 7.296875 -8.460938 6.644531 -8.625 5.90625 -8.625 C 5.195312 -8.625 4.554688 -8.457031 3.984375 -8.125 C 3.410156 -7.789062 2.957031 -7.316406 2.625 -6.703125 C 2.300781 -6.085938 2.140625 -5.382812 2.140625 -4.59375 C 2.140625 -3.78125 2.300781 -3.066406 2.625 -2.453125 C 2.957031 -1.835938 3.410156 -1.363281 3.984375 -1.03125 C 4.554688 -0.707031 5.195312 -0.546875 5.90625 -0.546875 C 6.644531 -0.546875 7.296875 -0.707031 7.859375 -1.03125 C 8.429688 -1.351562 8.875 -1.816406 9.1875 -2.421875 C 9.507812 -3.035156 9.671875 -3.757812 9.671875 -4.59375 Z M 9.671875 -4.59375 "/></g></g></g><g fill="#373643" fill-opacity="1"><g transform="translate(113.803867, 225.769265)"><g><path d="M 2.140625 -7.265625 C 2.367188 -7.941406 2.769531 -8.457031 3.34375 -8.8125 C 3.914062 -9.164062 4.644531 -9.34375 5.53125 -9.34375 L 5.53125 -8.5625 L 5.28125 -8.5625 C 4.382812 -8.5625 3.632812 -8.300781 3.03125 -7.78125 C 2.4375 -7.269531 2.140625 -6.4375 2.140625 -5.28125 L 2.140625 0 L 1.390625 0 L 1.390625 -9.15625 L 2.140625 -9.15625 Z M 2.140625 -7.265625 "/></g></g></g><g fill="#373643" fill-opacity="1"><g transform="translate(119.069606, 225.769265)"><g><path d="M 5.421875 0.140625 C 4.566406 0.140625 3.796875 -0.0507812 3.109375 -0.4375 C 2.421875 -0.820312 1.878906 -1.367188 1.484375 -2.078125 C 1.097656 -2.796875 0.90625 -3.632812 0.90625 -4.59375 C 0.90625 -5.53125 1.101562 -6.359375 1.5 -7.078125 C 1.894531 -7.796875 2.4375 -8.34375 3.125 -8.71875 C 3.820312 -9.09375 4.597656 -9.28125 5.453125 -9.28125 C 6.304688 -9.28125 7.078125 -9.09375 7.765625 -8.71875 C 8.453125 -8.34375 8.988281 -7.800781 9.375 -7.09375 C 9.757812 -6.382812 9.953125 -5.550781 9.953125 -4.59375 C 9.953125 -3.632812 9.753906 -2.796875 9.359375 -2.078125 C 8.972656 -1.367188 8.429688 -0.820312 7.734375 -0.4375 C 7.046875 -0.0507812 6.273438 0.140625 5.421875 0.140625 Z M 5.421875 -0.546875 C 6.078125 -0.546875 6.695312 -0.691406 7.28125 -0.984375 C 7.863281 -1.285156 8.328125 -1.738281 8.671875 -2.34375 C 9.023438 -2.945312 9.203125 -3.695312 9.203125 -4.59375 C 9.203125 -5.46875 9.023438 -6.207031 8.671875 -6.8125 C 8.328125 -7.425781 7.863281 -7.878906 7.28125 -8.171875 C 6.707031 -8.472656 6.09375 -8.625 5.4375 -8.625 C 4.769531 -8.625 4.148438 -8.472656 3.578125 -8.171875 C 3.015625 -7.878906 2.554688 -7.425781 2.203125 -6.8125 C 1.859375 -6.207031 1.6875 -5.46875 1.6875 -4.59375 C 1.6875 -3.695312 1.859375 -2.945312 2.203125 -2.34375 C 2.546875 -1.738281 3 -1.285156 3.5625 -0.984375 C 4.132812 -0.691406 4.753906 -0.546875 5.421875 -0.546875 Z M 5.421875 -0.546875 "/></g></g></g><g fill="#373643" fill-opacity="1"><g transform="translate(129.314333, 225.769265)"><g><path d="M 1.890625 -11.203125 C 1.710938 -11.203125 1.5625 -11.257812 1.4375 -11.375 C 1.3125 -11.5 1.25 -11.660156 1.25 -11.859375 C 1.25 -12.054688 1.3125 -12.210938 1.4375 -12.328125 C 1.5625 -12.453125 1.710938 -12.515625 1.890625 -12.515625 C 2.066406 -12.515625 2.21875 -12.453125 2.34375 -12.328125 C 2.476562 -12.210938 2.546875 -12.054688 2.546875 -11.859375 C 2.546875 -11.671875 2.476562 -11.515625 2.34375 -11.390625 C 2.21875 -11.265625 2.066406 -11.203125 1.890625 -11.203125 Z M 2.28125 2.359375 C 2.28125 3.015625 2.117188 3.503906 1.796875 3.828125 C 1.472656 4.148438 0.960938 4.3125 0.265625 4.3125 L -0.4375 4.3125 L -0.4375 3.640625 L 0.1875 3.640625 C 0.65625 3.640625 0.992188 3.539062 1.203125 3.34375 C 1.410156 3.144531 1.515625 2.796875 1.515625 2.296875 L 1.515625 -9.15625 L 2.28125 -9.15625 Z M 2.28125 2.359375 "/></g></g></g><g fill="#373643" fill-opacity="1"><g transform="translate(132.335313, 225.769265)"><g><path d="M 9.640625 -5.203125 C 9.640625 -4.796875 9.628906 -4.488281 9.609375 -4.28125 L 1.6875 -4.28125 C 1.707031 -3.457031 1.882812 -2.765625 2.21875 -2.203125 C 2.5625 -1.640625 3.007812 -1.21875 3.5625 -0.9375 C 4.113281 -0.65625 4.710938 -0.515625 5.359375 -0.515625 C 6.265625 -0.515625 7.019531 -0.738281 7.625 -1.1875 C 8.226562 -1.632812 8.613281 -2.238281 8.78125 -3 L 9.5625 -3 C 9.382812 -2.070312 8.925781 -1.316406 8.1875 -0.734375 C 7.445312 -0.148438 6.503906 0.140625 5.359375 0.140625 C 4.503906 0.140625 3.738281 -0.0507812 3.0625 -0.4375 C 2.394531 -0.820312 1.867188 -1.367188 1.484375 -2.078125 C 1.097656 -2.796875 0.90625 -3.632812 0.90625 -4.59375 C 0.90625 -5.550781 1.09375 -6.382812 1.46875 -7.09375 C 1.851562 -7.800781 2.378906 -8.34375 3.046875 -8.71875 C 3.722656 -9.09375 4.492188 -9.28125 5.359375 -9.28125 C 6.242188 -9.28125 7.007812 -9.09375 7.65625 -8.71875 C 8.300781 -8.34375 8.789062 -7.84375 9.125 -7.21875 C 9.46875 -6.59375 9.640625 -5.921875 9.640625 -5.203125 Z M 8.875 -4.90625 C 8.90625 -5.71875 8.757812 -6.40625 8.4375 -6.96875 C 8.125 -7.53125 7.691406 -7.945312 7.140625 -8.21875 C 6.585938 -8.5 5.988281 -8.640625 5.34375 -8.640625 C 4.707031 -8.640625 4.113281 -8.5 3.5625 -8.21875 C 3.019531 -7.945312 2.578125 -7.53125 2.234375 -6.96875 C 1.890625 -6.40625 1.707031 -5.71875 1.6875 -4.90625 Z M 8.875 -4.90625 "/></g></g></g><g fill="#373643" fill-opacity="1"><g transform="translate(142.242487, 225.769265)"><g><path d="M 0.90625 -4.59375 C 0.90625 -5.550781 1.09375 -6.382812 1.46875 -7.09375 C 1.851562 -7.800781 2.378906 -8.34375 3.046875 -8.71875 C 3.710938 -9.09375 4.476562 -9.28125 5.34375 -9.28125 C 6.5 -9.28125 7.441406 -8.992188 8.171875 -8.421875 C 8.910156 -7.847656 9.367188 -7.078125 9.546875 -6.109375 L 8.765625 -6.109375 C 8.609375 -6.898438 8.222656 -7.519531 7.609375 -7.96875 C 7.003906 -8.414062 6.25 -8.640625 5.34375 -8.640625 C 4.675781 -8.640625 4.066406 -8.488281 3.515625 -8.1875 C 2.960938 -7.894531 2.519531 -7.441406 2.1875 -6.828125 C 1.851562 -6.210938 1.6875 -5.46875 1.6875 -4.59375 C 1.6875 -3.695312 1.851562 -2.945312 2.1875 -2.34375 C 2.519531 -1.738281 2.960938 -1.28125 3.515625 -0.96875 C 4.066406 -0.664062 4.675781 -0.515625 5.34375 -0.515625 C 6.25 -0.515625 7.003906 -0.738281 7.609375 -1.1875 C 8.222656 -1.644531 8.609375 -2.265625 8.765625 -3.046875 L 9.546875 -3.046875 C 9.367188 -2.097656 8.90625 -1.328125 8.15625 -0.734375 C 7.414062 -0.148438 6.476562 0.140625 5.34375 0.140625 C 4.476562 0.140625 3.710938 -0.0507812 3.046875 -0.4375 C 2.378906 -0.820312 1.851562 -1.367188 1.46875 -2.078125 C 1.09375 -2.796875 0.90625 -3.632812 0.90625 -4.59375 Z M 0.90625 -4.59375 "/></g></g></g><g fill="#373643" fill-opacity="1"><g transform="translate(152.082153, 225.769265)"><g><path d="M 2.515625 -8.5 L 2.515625 -2.453125 C 2.515625 -1.773438 2.632812 -1.304688 2.875 -1.046875 C 3.125 -0.796875 3.566406 -0.671875 4.203125 -0.671875 L 5.234375 -0.671875 L 5.234375 0 L 4.078125 0 C 3.285156 0 2.695312 -0.1875 2.3125 -0.5625 C 1.9375 -0.9375 1.75 -1.566406 1.75 -2.453125 L 1.75 -8.5 L 0.375 -8.5 L 0.375 -9.15625 L 1.75 -9.15625 L 1.75 -11.484375 L 2.515625 -11.484375 L 2.515625 -9.15625 L 5.234375 -9.15625 L 5.234375 -8.5 Z M 2.515625 -8.5 "/></g></g></g><g fill="#373643" fill-opacity="1"><g transform="translate(157.29726, 225.769265)"><g/></g></g><g fill="#373643" fill-opacity="1"><g transform="translate(161.415302, 225.769265)"><g><path d="M 12.21875 -9.34375 C 13.257812 -9.34375 14.113281 -9.007812 14.78125 -8.34375 C 15.445312 -7.675781 15.78125 -6.679688 15.78125 -5.359375 L 15.78125 0 L 15.03125 0 L 15.03125 -5.3125 C 15.03125 -6.40625 14.769531 -7.238281 14.25 -7.8125 C 13.726562 -8.394531 13.007812 -8.6875 12.09375 -8.6875 C 11.15625 -8.6875 10.394531 -8.359375 9.8125 -7.703125 C 9.238281 -7.054688 8.953125 -6.113281 8.953125 -4.875 L 8.953125 0 L 8.21875 0 L 8.21875 -5.3125 C 8.21875 -6.40625 7.957031 -7.238281 7.4375 -7.8125 C 6.914062 -8.394531 6.195312 -8.6875 5.28125 -8.6875 C 4.332031 -8.6875 3.570312 -8.359375 3 -7.703125 C 2.425781 -7.054688 2.140625 -6.113281 2.140625 -4.875 L 2.140625 0 L 1.390625 0 L 1.390625 -9.15625 L 2.140625 -9.15625 L 2.140625 -7.171875 C 2.398438 -7.890625 2.816406 -8.429688 3.390625 -8.796875 C 3.972656 -9.160156 4.644531 -9.34375 5.40625 -9.34375 C 6.238281 -9.34375 6.953125 -9.125 7.546875 -8.6875 C 8.148438 -8.257812 8.566406 -7.625 8.796875 -6.78125 C 9.003906 -7.625 9.414062 -8.257812 10.03125 -8.6875 C 10.65625 -9.125 11.382812 -9.34375 12.21875 -9.34375 Z M 12.21875 -9.34375 "/></g></g></g><g fill="#373643" fill-opacity="1"><g transform="translate(177.871107, 225.769265)"><g><path d="M 0.90625 -4.59375 C 0.90625 -5.53125 1.09375 -6.351562 1.46875 -7.0625 C 1.851562 -7.78125 2.378906 -8.328125 3.046875 -8.703125 C 3.710938 -9.085938 4.472656 -9.28125 5.328125 -9.28125 C 6.296875 -9.28125 7.117188 -9.039062 7.796875 -8.5625 C 8.472656 -8.09375 8.945312 -7.492188 9.21875 -6.765625 L 9.21875 -9.15625 L 9.96875 -9.15625 L 9.96875 0 L 9.21875 0 L 9.21875 -2.40625 C 8.945312 -1.664062 8.46875 -1.054688 7.78125 -0.578125 C 7.101562 -0.0976562 6.285156 0.140625 5.328125 0.140625 C 4.472656 0.140625 3.710938 -0.0507812 3.046875 -0.4375 C 2.378906 -0.832031 1.851562 -1.382812 1.46875 -2.09375 C 1.09375 -2.8125 0.90625 -3.644531 0.90625 -4.59375 Z M 9.21875 -4.59375 C 9.21875 -5.382812 9.050781 -6.085938 8.71875 -6.703125 C 8.382812 -7.316406 7.929688 -7.789062 7.359375 -8.125 C 6.785156 -8.457031 6.144531 -8.625 5.4375 -8.625 C 4.6875 -8.625 4.03125 -8.460938 3.46875 -8.140625 C 2.90625 -7.816406 2.46875 -7.351562 2.15625 -6.75 C 1.84375 -6.144531 1.6875 -5.425781 1.6875 -4.59375 C 1.6875 -3.757812 1.84375 -3.035156 2.15625 -2.421875 C 2.46875 -1.816406 2.910156 -1.351562 3.484375 -1.03125 C 4.054688 -0.707031 4.707031 -0.546875 5.4375 -0.546875 C 6.144531 -0.546875 6.785156 -0.707031 7.359375 -1.03125 C 7.941406 -1.363281 8.394531 -1.835938 8.71875 -2.453125 C 9.050781 -3.066406 9.21875 -3.78125 9.21875 -4.59375 Z M 9.21875 -4.59375 "/></g></g></g><g fill="#373643" fill-opacity="1"><g transform="translate(188.588425, 225.769265)"><g><path d="M 5.515625 -9.34375 C 6.609375 -9.34375 7.5 -9.007812 8.1875 -8.34375 C 8.875 -7.675781 9.21875 -6.679688 9.21875 -5.359375 L 9.21875 0 L 8.46875 0 L 8.46875 -5.3125 C 8.46875 -6.40625 8.191406 -7.238281 7.640625 -7.8125 C 7.085938 -8.394531 6.34375 -8.6875 5.40625 -8.6875 C 4.414062 -8.6875 3.625 -8.367188 3.03125 -7.734375 C 2.4375 -7.109375 2.140625 -6.175781 2.140625 -4.9375 L 2.140625 0 L 1.390625 0 L 1.390625 -9.15625 L 2.140625 -9.15625 L 2.140625 -7.21875 C 2.398438 -7.90625 2.832031 -8.429688 3.4375 -8.796875 C 4.039062 -9.160156 4.734375 -9.34375 5.515625 -9.34375 Z M 5.515625 -9.34375 "/></g></g></g><g fill="#373643" fill-opacity="1"><g transform="translate(198.461845, 225.769265)"><g><path d="M 0.90625 -4.59375 C 0.90625 -5.53125 1.09375 -6.351562 1.46875 -7.0625 C 1.851562 -7.78125 2.378906 -8.328125 3.046875 -8.703125 C 3.710938 -9.085938 4.472656 -9.28125 5.328125 -9.28125 C 6.296875 -9.28125 7.117188 -9.039062 7.796875 -8.5625 C 8.472656 -8.09375 8.945312 -7.492188 9.21875 -6.765625 L 9.21875 -9.15625 L 9.96875 -9.15625 L 9.96875 0 L 9.21875 0 L 9.21875 -2.40625 C 8.945312 -1.664062 8.46875 -1.054688 7.78125 -0.578125 C 7.101562 -0.0976562 6.285156 0.140625 5.328125 0.140625 C 4.472656 0.140625 3.710938 -0.0507812 3.046875 -0.4375 C 2.378906 -0.832031 1.851562 -1.382812 1.46875 -2.09375 C 1.09375 -2.8125 0.90625 -3.644531 0.90625 -4.59375 Z M 9.21875 -4.59375 C 9.21875 -5.382812 9.050781 -6.085938 8.71875 -6.703125 C 8.382812 -7.316406 7.929688 -7.789062 7.359375 -8.125 C 6.785156 -8.457031 6.144531 -8.625 5.4375 -8.625 C 4.6875 -8.625 4.03125 -8.460938 3.46875 -8.140625 C 2.90625 -7.816406 2.46875 -7.351562 2.15625 -6.75 C 1.84375 -6.144531 1.6875 -5.425781 1.6875 -4.59375 C 1.6875 -3.757812 1.84375 -3.035156 2.15625 -2.421875 C 2.46875 -1.816406 2.910156 -1.351562 3.484375 -1.03125 C 4.054688 -0.707031 4.707031 -0.546875 5.4375 -0.546875 C 6.144531 -0.546875 6.785156 -0.707031 7.359375 -1.03125 C 7.941406 -1.363281 8.394531 -1.835938 8.71875 -2.453125 C 9.050781 -3.066406 9.21875 -3.78125 9.21875 -4.59375 Z M 9.21875 -4.59375 "/></g></g></g><g fill="#373643" fill-opacity="1"><g transform="translate(209.179163, 225.769265)"><g><path d="M 5.328125 -9.28125 C 6.296875 -9.28125 7.117188 -9.046875 7.796875 -8.578125 C 8.472656 -8.109375 8.945312 -7.507812 9.21875 -6.78125 L 9.21875 -9.15625 L 9.96875 -9.15625 L 9.96875 0.28125 C 9.96875 1.125 9.78125 1.863281 9.40625 2.5 C 9.039062 3.132812 8.539062 3.625 7.90625 3.96875 C 7.28125 4.3125 6.582031 4.484375 5.8125 4.484375 C 4.65625 4.484375 3.703125 4.207031 2.953125 3.65625 C 2.203125 3.101562 1.707031 2.363281 1.46875 1.4375 L 2.234375 1.4375 C 2.453125 2.164062 2.867188 2.742188 3.484375 3.171875 C 4.109375 3.609375 4.882812 3.828125 5.8125 3.828125 C 6.445312 3.828125 7.019531 3.679688 7.53125 3.390625 C 8.050781 3.109375 8.460938 2.695312 8.765625 2.15625 C 9.066406 1.625 9.21875 1 9.21875 0.28125 L 9.21875 -2.390625 C 8.945312 -1.660156 8.46875 -1.054688 7.78125 -0.578125 C 7.101562 -0.0976562 6.285156 0.140625 5.328125 0.140625 C 4.472656 0.140625 3.710938 -0.0507812 3.046875 -0.4375 C 2.378906 -0.832031 1.851562 -1.382812 1.46875 -2.09375 C 1.09375 -2.8125 0.90625 -3.644531 0.90625 -4.59375 C 0.90625 -5.53125 1.09375 -6.351562 1.46875 -7.0625 C 1.851562 -7.78125 2.378906 -8.328125 3.046875 -8.703125 C 3.710938 -9.085938 4.472656 -9.28125 5.328125 -9.28125 Z M 9.21875 -4.59375 C 9.21875 -5.382812 9.050781 -6.085938 8.71875 -6.703125 C 8.382812 -7.316406 7.929688 -7.789062 7.359375 -8.125 C 6.785156 -8.457031 6.144531 -8.625 5.4375 -8.625 C 4.6875 -8.625 4.03125 -8.460938 3.46875 -8.140625 C 2.90625 -7.816406 2.46875 -7.351562 2.15625 -6.75 C 1.84375 -6.144531 1.6875 -5.425781 1.6875 -4.59375 C 1.6875 -3.757812 1.84375 -3.035156 2.15625 -2.421875 C 2.46875 -1.816406 2.910156 -1.351562 3.484375 -1.03125 C 4.054688 -0.707031 4.707031 -0.546875 5.4375 -0.546875 C 6.144531 -0.546875 6.785156 -0.707031 7.359375 -1.03125 C 7.941406 -1.363281 8.394531 -1.835938 8.71875 -2.453125 C 9.050781 -3.066406 9.21875 -3.78125 9.21875 -4.59375 Z M 9.21875 -4.59375 "/></g></g></g><g fill="#373643" fill-opacity="1"><g transform="translate(219.896487, 225.769265)"><g><path d="M 9.640625 -5.203125 C 9.640625 -4.796875 9.628906 -4.488281 9.609375 -4.28125 L 1.6875 -4.28125 C 1.707031 -3.457031 1.882812 -2.765625 2.21875 -2.203125 C 2.5625 -1.640625 3.007812 -1.21875 3.5625 -0.9375 C 4.113281 -0.65625 4.710938 -0.515625 5.359375 -0.515625 C 6.265625 -0.515625 7.019531 -0.738281 7.625 -1.1875 C 8.226562 -1.632812 8.613281 -2.238281 8.78125 -3 L 9.5625 -3 C 9.382812 -2.070312 8.925781 -1.316406 8.1875 -0.734375 C 7.445312 -0.148438 6.503906 0.140625 5.359375 0.140625 C 4.503906 0.140625 3.738281 -0.0507812 3.0625 -0.4375 C 2.394531 -0.820312 1.867188 -1.367188 1.484375 -2.078125 C 1.097656 -2.796875 0.90625 -3.632812 0.90625 -4.59375 C 0.90625 -5.550781 1.09375 -6.382812 1.46875 -7.09375 C 1.851562 -7.800781 2.378906 -8.34375 3.046875 -8.71875 C 3.722656 -9.09375 4.492188 -9.28125 5.359375 -9.28125 C 6.242188 -9.28125 7.007812 -9.09375 7.65625 -8.71875 C 8.300781 -8.34375 8.789062 -7.84375 9.125 -7.21875 C 9.46875 -6.59375 9.640625 -5.921875 9.640625 -5.203125 Z M 8.875 -4.90625 C 8.90625 -5.71875 8.757812 -6.40625 8.4375 -6.96875 C 8.125 -7.53125 7.691406 -7.945312 7.140625 -8.21875 C 6.585938 -8.5 5.988281 -8.640625 5.34375 -8.640625 C 4.707031 -8.640625 4.113281 -8.5 3.5625 -8.21875 C 3.019531 -7.945312 2.578125 -7.53125 2.234375 -6.96875 C 1.890625 -6.40625 1.707031 -5.71875 1.6875 -4.90625 Z M 8.875 -4.90625 "/></g></g></g><g fill="#373643" fill-opacity="1"><g transform="translate(229.803661, 225.769265)"><g><path d="M 12.21875 -9.34375 C 13.257812 -9.34375 14.113281 -9.007812 14.78125 -8.34375 C 15.445312 -7.675781 15.78125 -6.679688 15.78125 -5.359375 L 15.78125 0 L 15.03125 0 L 15.03125 -5.3125 C 15.03125 -6.40625 14.769531 -7.238281 14.25 -7.8125 C 13.726562 -8.394531 13.007812 -8.6875 12.09375 -8.6875 C 11.15625 -8.6875 10.394531 -8.359375 9.8125 -7.703125 C 9.238281 -7.054688 8.953125 -6.113281 8.953125 -4.875 L 8.953125 0 L 8.21875 0 L 8.21875 -5.3125 C 8.21875 -6.40625 7.957031 -7.238281 7.4375 -7.8125 C 6.914062 -8.394531 6.195312 -8.6875 5.28125 -8.6875 C 4.332031 -8.6875 3.570312 -8.359375 3 -7.703125 C 2.425781 -7.054688 2.140625 -6.113281 2.140625 -4.875 L 2.140625 0 L 1.390625 0 L 1.390625 -9.15625 L 2.140625 -9.15625 L 2.140625 -7.171875 C 2.398438 -7.890625 2.816406 -8.429688 3.390625 -8.796875 C 3.972656 -9.160156 4.644531 -9.34375 5.40625 -9.34375 C 6.238281 -9.34375 6.953125 -9.125 7.546875 -8.6875 C 8.148438 -8.257812 8.566406 -7.625 8.796875 -6.78125 C 9.003906 -7.625 9.414062 -8.257812 10.03125 -8.6875 C 10.65625 -9.125 11.382812 -9.34375 12.21875 -9.34375 Z M 12.21875 -9.34375 "/></g></g></g><g fill="#373643" fill-opacity="1"><g transform="translate(246.259467, 225.769265)"><g><path d="M 9.640625 -5.203125 C 9.640625 -4.796875 9.628906 -4.488281 9.609375 -4.28125 L 1.6875 -4.28125 C 1.707031 -3.457031 1.882812 -2.765625 2.21875 -2.203125 C 2.5625 -1.640625 3.007812 -1.21875 3.5625 -0.9375 C 4.113281 -0.65625 4.710938 -0.515625 5.359375 -0.515625 C 6.265625 -0.515625 7.019531 -0.738281 7.625 -1.1875 C 8.226562 -1.632812 8.613281 -2.238281 8.78125 -3 L 9.5625 -3 C 9.382812 -2.070312 8.925781 -1.316406 8.1875 -0.734375 C 7.445312 -0.148438 6.503906 0.140625 5.359375 0.140625 C 4.503906 0.140625 3.738281 -0.0507812 3.0625 -0.4375 C 2.394531 -0.820312 1.867188 -1.367188 1.484375 -2.078125 C 1.097656 -2.796875 0.90625 -3.632812 0.90625 -4.59375 C 0.90625 -5.550781 1.09375 -6.382812 1.46875 -7.09375 C 1.851562 -7.800781 2.378906 -8.34375 3.046875 -8.71875 C 3.722656 -9.09375 4.492188 -9.28125 5.359375 -9.28125 C 6.242188 -9.28125 7.007812 -9.09375 7.65625 -8.71875 C 8.300781 -8.34375 8.789062 -7.84375 9.125 -7.21875 C 9.46875 -6.59375 9.640625 -5.921875 9.640625 -5.203125 Z M 8.875 -4.90625 C 8.90625 -5.71875 8.757812 -6.40625 8.4375 -6.96875 C 8.125 -7.53125 7.691406 -7.945312 7.140625 -8.21875 C 6.585938 -8.5 5.988281 -8.640625 5.34375 -8.640625 C 4.707031 -8.640625 4.113281 -8.5 3.5625 -8.21875 C 3.019531 -7.945312 2.578125 -7.53125 2.234375 -6.96875 C 1.890625 -6.40625 1.707031 -5.71875 1.6875 -4.90625 Z M 8.875 -4.90625 "/></g></g></g><g fill="#373643" fill-opacity="1"><g transform="translate(256.166641, 225.769265)"><g><path d="M 5.515625 -9.34375 C 6.609375 -9.34375 7.5 -9.007812 8.1875 -8.34375 C 8.875 -7.675781 9.21875 -6.679688 9.21875 -5.359375 L 9.21875 0 L 8.46875 0 L 8.46875 -5.3125 C 8.46875 -6.40625 8.191406 -7.238281 7.640625 -7.8125 C 7.085938 -8.394531 6.34375 -8.6875 5.40625 -8.6875 C 4.414062 -8.6875 3.625 -8.367188 3.03125 -7.734375 C 2.4375 -7.109375 2.140625 -6.175781 2.140625 -4.9375 L 2.140625 0 L 1.390625 0 L 1.390625 -9.15625 L 2.140625 -9.15625 L 2.140625 -7.21875 C 2.398438 -7.90625 2.832031 -8.429688 3.4375 -8.796875 C 4.039062 -9.160156 4.734375 -9.34375 5.515625 -9.34375 Z M 5.515625 -9.34375 "/></g></g></g><g fill="#373643" fill-opacity="1"><g transform="translate(266.040061, 225.769265)"><g><path d="M 2.515625 -8.5 L 2.515625 -2.453125 C 2.515625 -1.773438 2.632812 -1.304688 2.875 -1.046875 C 3.125 -0.796875 3.566406 -0.671875 4.203125 -0.671875 L 5.234375 -0.671875 L 5.234375 0 L 4.078125 0 C 3.285156 0 2.695312 -0.1875 2.3125 -0.5625 C 1.9375 -0.9375 1.75 -1.566406 1.75 -2.453125 L 1.75 -8.5 L 0.375 -8.5 L 0.375 -9.15625 L 1.75 -9.15625 L 1.75 -11.484375 L 2.515625 -11.484375 L 2.515625 -9.15625 L 5.234375 -9.15625 L 5.234375 -8.5 Z M 2.515625 -8.5 "/></g></g></g></svg>